<?xml version="1.0" encoding="utf-8"?>
<!-- Generator: Adobe Illustrator 23.1.1, SVG Export Plug-In . SVG Version: 6.00 Build 0)  -->
<svg version="1.1" id="Layer_1" xmlns="http://www.w3.org/2000/svg" xmlns:xlink="http://www.w3.org/1999/xlink" x="0px" y="0px"
	 viewBox="0 0 612 792" style="enable-background:new 0 0 612 792;" xml:space="preserve">
<style type="text/css">
	.st0{fill:#B93145;}
</style>
<g>
	<path class="st0" d="M167.8,352.7c0-20,0.5-40-0.2-60c-0.3-10.4-2.6-20.7-4.1-31.1c-3.1-20.7-6.4-41.3-9.6-61.9
		c-1.9-12-3.8-23.9-5.5-35.9c-0.5-3.2-0.7-6.7,0-9.9c2.8-13.3,14.9-13.3,23.4-8.2c13.9,8.4,27.7,17.2,41.5,25.9
		c8.5,5.3,16.9,10.7,25.4,15.7c1.6,0.9,4.1,1.2,5.8,0.6c26.7-9.5,53.3-9.6,80-0.1c1.9,0.7,4.9,0.2,6.7-0.9
		c21.5-13.2,42.9-26.7,64.4-40c2.8-1.7,5.9-3.3,9-3.8c10.9-1.7,18.1,5.6,16.6,17c-1.7,13-3.9,25.9-5.8,38.9
		c-3.1,20.5-5.7,41.1-9.6,61.4c-6.9,36.7-2.8,73.7-3.8,110.5c-0.4,14.3,0,28.7-0.1,43c-0.1,8.6-6.9,13.8-14.2,11
		c-4.9-1.9-6.8-5.7-6.8-11c0.1-39,0.5-78-0.1-117c-0.6-35.6-15.6-64-46.8-82.2c-26.3-15.3-54.7-17.6-83-7.2
		c-35.7,13-55.9,39.6-61.7,77.1c-1,6.4-0.9,12.9-0.9,19.4c-0.1,36,0,72-0.1,108c0,2.6-0.1,5.4-1,7.8c-1.7,4.3-6.6,6.5-11.1,5.6
		c-4.9-1-7.9-4.3-8.3-9.2c-0.1-1.7-0.1-3.3-0.1-5c0-19.5,0-39,0-58.5C167.7,352.7,167.8,352.7,167.8,352.7z M348.9,200.7
		c16.2,11,28.5,24.7,38.6,42.1c3.9-25,7.5-48.6,11.3-73.2C382,180.1,365.9,190.1,348.9,200.7z M181.8,242.9
		c10.1-17.7,22.9-31.1,38.5-42.3c-16.6-10.4-32.6-20.4-49.8-31.1C174.3,194.3,177.9,217.8,181.8,242.9z"/>
	<path class="st0" d="M189,553.4c0-14.2,0-28.3,0-42.5c0.1-24.5,20.5-47.7,44.7-52.2c30-5.6,61.8,21.7,61.5,52.8
		c-0.3,28.3-0.1,56.6-0.1,84.9c0,27.9-25,53-52.8,53.3c-27.3,0.2-53.1-25-53.2-52.4C188.9,582.7,189,568.1,189,553.4z M210,553.5
		c0,14.8,0,29.7,0,44.5c0,1.7-0.1,3.4,0.2,5c3.9,19.8,19.2,26.7,34.3,25.7c18.1-1.2,29.4-13.6,29.5-31.3c0-29.3,0-58.6,0-88
		c0-17.8-13.3-30.4-31.8-30.5c-18.9,0-32.1,12.5-32.2,30.5C210,524.2,210,538.9,210,553.5z"/>
	<path class="st0" d="M387.7,478.6c-9.8,0.5-19.7,0-29.3,1.6c-13.1,2.2-18.9,12.1-21,24.2c-1.8,10.9,1.3,20.7,11,26.4
		c11.9,7.1,24.6,12.9,37,19.2c9.2,4.7,18.6,8.9,25,17.5c11.9,15.9,16.2,33.3,7.7,51.8c-8.8,19.2-24.7,29.3-45.7,30.3
		c-14.8,0.7-29.6,0.2-44.5,0.1c-5.9,0-9.7-2.8-11.1-7.5c-1.4-4.7-0.1-8.7,3.8-11.4c1.9-1.3,4.6-1.9,6.9-1.9
		c15.2-0.2,30.3,0.1,45.5-0.2c10.8-0.2,19.8-4.4,24.8-14.6c5.1-10.3,6.4-20.9-0.8-30.6c-3.1-4.2-7.8-7.7-12.5-10.3
		c-12.7-6.9-25.8-13-38.7-19.5c-20.7-10.3-32.4-32.7-28.9-54.9c3.3-20.4,23.1-39,45.5-40.7c16.7-1.2,33.6-0.4,50.5-0.2
		c5.7,0.1,9.8,5.2,9.5,10.8c-0.2,5.7-4.4,9.9-10.3,10c-8.2,0.2-16.3,0-24.5,0C387.7,478.9,387.7,478.7,387.7,478.6z"/>
	<path class="st0" d="M487.7,479c-10.7,0-20.6,0-30.6,0c-7.4,0-12-3.9-12.1-10.2c-0.1-6.5,4.7-10.8,12.2-10.8c27.3,0,54.7,0,82,0
		c7.2,0,11.9,4.2,11.9,10.5c0,6.4-4.6,10.5-11.9,10.5c-10,0-20,0-30.9,0c0,2.3,0,4.4,0,6.5c0,50.2,0,100.3,0,150.5
		c0,2.6-0.1,5.4-1,7.8c-1.6,4.1-6.4,6.5-10.6,5.8c-5-0.8-8.4-4.4-8.8-9.3c-0.2-2-0.1-4-0.1-6c0-49.7,0-99.3,0-149
		C487.7,483.3,487.7,481.4,487.7,479z"/>
	<path class="st0" d="M61,539.2c0-23,0-46,0-69c0-7.3,4-12.1,10.2-12.2c6.3-0.1,10.8,4.9,10.8,12.3c0,45.1,0.3,90.3-0.1,135.4
		c-0.1,14.6,8.2,23.3,23.4,23.2c16.8-0.2,33.6-0.1,50.5,0c6.9,0,11.1,3.8,11.3,9.9c0.2,6-4,10.8-10.6,10.8
		c-19.6,0-39.3,0.4-58.9-0.8c-19-1.2-36.5-21.7-36.6-40.7c-0.1-11.5,0-23,0-34.5C61,562.2,61,550.7,61,539.2z"/>
	<path class="st0" d="M284.5,330c3.7,0,7.3,0,11,0c4.7,0,7.7,2.5,9.6,6.6c1.9,4.1,1,7.9-2,11c-3.7,4-7.6,7.9-11.6,11.6
		c-4.3,3.9-9.7,3.8-13.9-0.1c-3.9-3.6-7.6-7.4-11.3-11.3c-3.1-3.3-3.9-7.3-2-11.5c1.9-4.1,5.1-6.4,9.8-6.3
		C277.6,330,281,330,284.5,330z"/>
	<path class="st0" d="M338.5,282c7,0.1,15.5,9.1,15.5,16.4c0,6.8-9.1,15.3-16.5,15.4c-6.7,0.1-15.5-9.3-15.4-16.4
		C322.1,290.5,331.3,281.9,338.5,282z"/>
	<path class="st0" d="M215.7,297.2c0-6.9,8.7-15.1,16-15.2c7,0,15.4,8.8,15.4,16.3c0,7.2-8.6,15.4-16.3,15.5
		C224,313.9,215.6,304.7,215.7,297.2z"/>
</g>
</svg>
